<svg width="488" height="135" viewBox="0 0 488 135" fill="none" xmlns="http://www.w3.org/2000/svg">
<path d="M35.28 0.999997L29.26 50H24.99L18.13 25.64L11.34 50H7.07L1.05 0.999997H8.82L11.48 25.43L15.96 8.77H20.37L24.85 25.43L27.51 0.999997H35.28ZM49.9521 50.56C53.3121 50.56 56.0188 49.6033 58.0721 47.69C60.4054 45.45 61.5721 42.3933 61.5721 38.52V12.48C61.5721 8.60667 60.4054 5.55 58.0721 3.31C56.0188 1.39667 53.3121 0.44 49.9521 0.44C46.5921 0.44 43.8854 1.39667 41.8321 3.31C39.4988 5.55 38.3321 8.60667 38.3321 12.48V38.52C38.3321 42.3933 39.4988 45.45 41.8321 47.69C43.8854 49.6033 46.5921 50.56 49.9521 50.56ZM49.9521 8.14C51.3054 8.14 52.2621 8.42 52.8221 8.98C53.5221 9.58667 53.8721 10.7533 53.8721 12.48V38.52C53.8721 40.2467 53.5221 41.4133 52.8221 42.02C52.2621 42.58 51.3054 42.86 49.9521 42.86C48.6454 42.86 47.6888 42.58 47.0821 42.02C46.3821 41.3667 46.0321 40.2 46.0321 38.52V12.48C46.0321 10.8 46.3821 9.63333 47.0821 8.98C47.6888 8.42 48.6454 8.14 49.9521 8.14ZM89.5409 50H81.7009L77.7109 30.33H74.2109V50H66.5109V0.999997H78.1309C81.4443 0.999997 84.1509 1.98 86.2509 3.94C88.5843 6.08666 89.7509 9.12 89.7509 13.04V18.29C89.7509 22.2567 88.5843 25.3133 86.2509 27.46C85.9243 27.7867 85.5509 28.09 85.1309 28.37L89.5409 50ZM82.0509 13.04C82.0509 11.4067 81.7009 10.24 81.0009 9.54C80.3943 8.98 79.4376 8.7 78.1309 8.7H74.2109V22.63H78.1309C79.4376 22.63 80.3943 22.35 81.0009 21.79C81.7009 21.1367 82.0509 19.97 82.0509 18.29V13.04ZM114.633 42.3H102.033V0.999997H94.3332V50H114.633V42.3ZM129.947 50C133.307 50 135.991 49.09 137.997 47.27C139.164 46.2433 140.074 44.9367 140.727 43.35C141.287 41.8567 141.567 40.1533 141.567 38.24V13.04C141.567 9.12 140.401 6.08666 138.067 3.94C135.967 1.98 133.261 0.999997 129.947 0.999997H118.327V50H129.947ZM126.027 8.7H129.947C131.254 8.7 132.211 8.98 132.817 9.54C133.517 10.24 133.867 11.4067 133.867 13.04V38.24C133.867 39.8733 133.541 40.97 132.887 41.53C132.327 42.0433 131.347 42.3 129.947 42.3H126.027V8.7ZM179.04 0.999997L173.02 50H168.75L161.89 25.64L155.1 50H150.83L144.81 0.999997H152.58L155.24 25.43L159.72 8.77H164.13L168.61 25.43L171.27 0.999997H179.04ZM190.559 0.999997H182.859V50H190.559V0.999997ZM207.809 50C211.169 50 213.852 49.09 215.859 47.27C217.025 46.2433 217.935 44.9367 218.589 43.35C219.149 41.8567 219.429 40.1533 219.429 38.24V13.04C219.429 9.12 218.262 6.08666 215.929 3.94C213.829 1.98 211.122 0.999997 207.809 0.999997H196.189V50H207.809ZM203.889 8.7H207.809C209.115 8.7 210.072 8.98 210.679 9.54C211.379 10.24 211.729 11.4067 211.729 13.04V38.24C211.729 39.8733 211.402 40.97 210.749 41.53C210.189 42.0433 209.209 42.3 207.809 42.3H203.889V8.7ZM232.121 8.7V21.02H240.801V28.72H232.121V42.3H244.721V50H224.421V0.999997H244.721V8.7H232.121ZM270.878 50.56C274.238 50.56 276.945 49.6033 278.998 47.69C281.331 45.45 282.498 42.3933 282.498 38.52V35.44C282.498 30.96 280.771 27.18 277.318 24.1C276.385 23.26 274.705 22.1867 272.278 20.88C270.925 20.1333 270.015 19.5733 269.548 19.2C267.821 17.66 266.958 15.8167 266.958 13.67V12.48C266.958 10.8 267.308 9.63333 268.008 8.98C268.615 8.42 269.571 8.14 270.878 8.14C272.231 8.14 273.188 8.42 273.748 8.98C274.448 9.58667 274.798 10.7533 274.798 12.48V16.75H282.498V12.48C282.498 8.60667 281.331 5.55 278.998 3.31C276.945 1.39667 274.238 0.44 270.878 0.44C267.518 0.44 264.811 1.39667 262.758 3.31C260.425 5.55 259.258 8.60667 259.258 12.48V13.67C259.258 15.8633 259.701 17.9167 260.588 19.83C261.475 21.7433 262.758 23.4467 264.438 24.94C265.465 25.8267 267.075 26.8533 269.268 28.02C270.855 28.9067 271.835 29.5133 272.208 29.84C273.935 31.4267 274.798 33.2933 274.798 35.44V38.52C274.798 40.2467 274.448 41.4133 273.748 42.02C273.188 42.58 272.231 42.86 270.878 42.86C269.571 42.86 268.615 42.58 268.008 42.02C267.308 41.3667 266.958 40.2 266.958 38.52V32.15H259.258V38.52C259.258 42.3933 260.425 45.45 262.758 47.69C264.811 49.6033 267.518 50.56 270.878 50.56ZM298.097 50.56C301.457 50.56 304.163 49.6033 306.217 47.69C308.55 45.45 309.717 42.3933 309.717 38.52V12.48C309.717 8.60667 308.55 5.55 306.217 3.31C304.163 1.39667 301.457 0.44 298.097 0.44C294.737 0.44 292.03 1.39667 289.977 3.31C287.643 5.55 286.477 8.60667 286.477 12.48V38.52C286.477 42.3933 287.643 45.45 289.977 47.69C292.03 49.6033 294.737 50.56 298.097 50.56ZM298.097 8.14C299.45 8.14 300.407 8.42 300.967 8.98C301.667 9.58667 302.017 10.7533 302.017 12.48V38.52C302.017 40.2467 301.667 41.4133 300.967 42.02C300.407 42.58 299.45 42.86 298.097 42.86C296.79 42.86 295.833 42.58 295.227 42.02C294.527 41.3667 294.177 40.2 294.177 38.52V12.48C294.177 10.8 294.527 9.63333 295.227 8.98C295.833 8.42 296.79 8.14 298.097 8.14ZM322.355 8.7V21.02H331.105V28.72H322.355V50H314.655V0.999997H334.955V8.7H322.355ZM360.34 8.7H352.5V50H344.8V8.7H336.96V0.999997H360.34V8.7ZM396.901 0.999997L390.881 50H386.611L379.751 25.64L372.961 50H368.691L362.671 0.999997H370.441L373.101 25.43L377.581 8.77H381.991L386.471 25.43L389.131 0.999997H396.901ZM414.771 42.23H405.951L404.551 50H396.711L406.511 0.999997H414.211L424.011 50H416.171L414.771 42.23ZM413.441 34.53L410.361 16.96L407.281 34.53H413.441ZM450.82 50H442.98L438.99 30.33H435.49V50H427.79V0.999997H439.41C442.724 0.999997 445.43 1.98 447.53 3.94C449.864 6.08666 451.03 9.12 451.03 13.04V18.29C451.03 22.2567 449.864 25.3133 447.53 27.46C447.204 27.7867 446.83 28.09 446.41 28.37L450.82 50ZM443.33 13.04C443.33 11.4067 442.98 10.24 442.28 9.54C441.674 8.98 440.717 8.7 439.41 8.7H435.49V22.63H439.41C440.717 22.63 441.674 22.35 442.28 21.79C442.98 21.1367 443.33 19.97 443.33 18.29V13.04ZM463.313 8.7V21.02H471.993V28.72H463.313V42.3H475.913V50H455.613V0.999997H475.913V8.7H463.313ZM18.97 126.23H10.15L8.75 134H0.91L10.71 85H18.41L28.21 134H20.37L18.97 126.23ZM17.64 118.53L14.56 100.96L11.48 118.53H17.64ZM55.0195 134H47.1795L43.1895 114.33H39.6895V134H31.9895V85H43.6095C46.9228 85 49.6295 85.98 51.7295 87.94C54.0628 90.0867 55.2295 93.12 55.2295 97.04V102.29C55.2295 106.257 54.0628 109.313 51.7295 111.46C51.4028 111.787 51.0295 112.09 50.6095 112.37L55.0195 134ZM47.5295 97.04C47.5295 95.4067 47.1795 94.24 46.4795 93.54C45.8728 92.98 44.9161 92.7 43.6095 92.7H39.6895V106.63H43.6095C44.9161 106.63 45.8728 106.35 46.4795 105.79C47.1795 105.137 47.5295 103.97 47.5295 102.29V97.04ZM70.8017 134.56C74.1617 134.56 76.8684 133.603 78.9217 131.69C81.2551 129.45 82.4217 126.393 82.4217 122.52V116.22H74.7217V122.52C74.7217 124.247 74.3951 125.413 73.7417 126.02C73.1351 126.58 72.1551 126.86 70.8017 126.86C69.4951 126.86 68.5384 126.58 67.9317 126.02C67.2317 125.367 66.8817 124.2 66.8817 122.52V96.48C66.8817 94.8 67.2317 93.6333 67.9317 92.98C68.5384 92.42 69.4951 92.14 70.8017 92.14C72.1551 92.14 73.1351 92.42 73.7417 92.98C74.3951 93.5867 74.7217 94.7533 74.7217 96.48V100.82H82.4217V96.48C82.4217 92.6067 81.2551 89.55 78.9217 87.31C76.8684 85.3967 74.1617 84.44 70.8017 84.44C67.5351 84.44 64.8284 85.3967 62.6817 87.31C60.3484 89.6433 59.1817 92.7 59.1817 96.48V122.52C59.1817 126.3 60.3484 129.357 62.6817 131.69C64.8284 133.603 67.5351 134.56 70.8017 134.56ZM110.327 85V134H102.627V112.72H94.7871V134H87.0871V85H94.7871V105.02H102.627V85H110.327ZM123.635 85H115.935V134H123.635V85ZM150.545 92.7H142.705V134H135.005V92.7H127.165V85H150.545V92.7ZM161.643 92.7V105.02H170.323V112.72H161.643V126.3H174.243V134H153.943V85H174.243V92.7H161.643ZM189.337 134.56C192.697 134.56 195.404 133.603 197.457 131.69C199.79 129.45 200.957 126.393 200.957 122.52V116.22H193.257V122.52C193.257 124.247 192.93 125.413 192.277 126.02C191.67 126.58 190.69 126.86 189.337 126.86C188.03 126.86 187.074 126.58 186.467 126.02C185.767 125.367 185.417 124.2 185.417 122.52V96.48C185.417 94.8 185.767 93.6333 186.467 92.98C187.074 92.42 188.03 92.14 189.337 92.14C190.69 92.14 191.67 92.42 192.277 92.98C192.93 93.5867 193.257 94.7533 193.257 96.48V100.82H200.957V96.48C200.957 92.6067 199.79 89.55 197.457 87.31C195.404 85.3967 192.697 84.44 189.337 84.44C186.07 84.44 183.364 85.3967 181.217 87.31C178.884 89.6433 177.717 92.7 177.717 96.48V122.52C177.717 126.3 178.884 129.357 181.217 131.69C183.364 133.603 186.07 134.56 189.337 134.56ZM226.902 92.7H219.062V134H211.362V92.7H203.522V85H226.902V92.7ZM241.57 134.56C244.837 134.56 247.543 133.603 249.69 131.69C252.023 129.357 253.19 126.3 253.19 122.52V85H245.49V122.52C245.49 124.2 245.14 125.367 244.44 126.02C243.833 126.58 242.877 126.86 241.57 126.86C240.217 126.86 239.237 126.58 238.63 126.02C237.977 125.413 237.65 124.247 237.65 122.52V85H229.95V122.52C229.95 126.393 231.117 129.45 233.45 131.69C235.503 133.603 238.21 134.56 241.57 134.56ZM281.494 134H273.654L269.664 114.33H266.164V134H258.464V85H270.084C273.397 85 276.104 85.98 278.204 87.94C280.537 90.0867 281.704 93.12 281.704 97.04V102.29C281.704 106.257 280.537 109.313 278.204 111.46C277.877 111.787 277.504 112.09 277.084 112.37L281.494 134ZM274.004 97.04C274.004 95.4067 273.654 94.24 272.954 93.54C272.347 92.98 271.391 92.7 270.084 92.7H266.164V106.63H270.084C271.391 106.63 272.347 106.35 272.954 105.79C273.654 105.137 274.004 103.97 274.004 102.29V97.04ZM293.986 92.7V105.02H302.666V112.72H293.986V126.3H306.586V134H286.286V85H306.586V92.7H293.986ZM332.743 134.56C336.103 134.56 338.81 133.603 340.863 131.69C343.197 129.45 344.363 126.393 344.363 122.52V119.44C344.363 114.96 342.637 111.18 339.183 108.1C338.25 107.26 336.57 106.187 334.143 104.88C332.79 104.133 331.88 103.573 331.413 103.2C329.687 101.66 328.823 99.8167 328.823 97.67V96.48C328.823 94.8 329.173 93.6333 329.873 92.98C330.48 92.42 331.437 92.14 332.743 92.14C334.097 92.14 335.053 92.42 335.613 92.98C336.313 93.5867 336.663 94.7533 336.663 96.48V100.75H344.363V96.48C344.363 92.6067 343.197 89.55 340.863 87.31C338.81 85.3967 336.103 84.44 332.743 84.44C329.383 84.44 326.677 85.3967 324.623 87.31C322.29 89.55 321.123 92.6067 321.123 96.48V97.67C321.123 99.8633 321.567 101.917 322.453 103.83C323.34 105.743 324.623 107.447 326.303 108.94C327.33 109.827 328.94 110.853 331.133 112.02C332.72 112.907 333.7 113.513 334.073 113.84C335.8 115.427 336.663 117.293 336.663 119.44V122.52C336.663 124.247 336.313 125.413 335.613 126.02C335.053 126.58 334.097 126.86 332.743 126.86C331.437 126.86 330.48 126.58 329.873 126.02C329.173 125.367 328.823 124.2 328.823 122.52V116.15H321.123V122.52C321.123 126.393 322.29 129.45 324.623 131.69C326.677 133.603 329.383 134.56 332.743 134.56ZM360.105 134.56C363.372 134.56 366.078 133.603 368.225 131.69C370.558 129.357 371.725 126.3 371.725 122.52V85H364.025V122.52C364.025 124.2 363.675 125.367 362.975 126.02C362.368 126.58 361.412 126.86 360.105 126.86C358.752 126.86 357.772 126.58 357.165 126.02C356.512 125.413 356.185 124.247 356.185 122.52V85H348.485V122.52C348.485 126.393 349.652 129.45 351.985 131.69C354.038 133.603 356.745 134.56 360.105 134.56ZM409.339 85V134H401.639V109.57L395.409 126.3H390.929L384.699 109.57V134H376.999V85H381.409L393.169 112.16L404.929 85H409.339ZM447.279 85V134H439.579V109.57L433.349 126.3H428.869L422.639 109.57V134H414.939V85H419.349L431.109 112.16L442.869 85H447.279ZM460.578 85H452.878V134H460.578V85ZM487.488 92.7H479.648V134H471.948V92.7H464.108V85H487.488V92.7Z" fill="#73F9BC"/>
</svg>
